<svg width="20" height="20" viewBox="0 0 20 20" fill="none" xmlns="http://www.w3.org/2000/svg">
<g id="arrow_drop_down">
<mask id="mask0_419_528" style="mask-type:alpha" maskUnits="userSpaceOnUse" x="0" y="0" width="20" height="20">
<rect id="Bounding box" width="20" height="20" fill="#D9D9D9"/>
</mask>
<g mask="url(#mask0_419_528)">
<path id="arrow_drop_down_2" d="M9.56283 12.0627L6.54199 9.04183C6.50033 9.00016 6.46908 8.95502 6.44824 8.90641C6.42741 8.8578 6.41699 8.80572 6.41699 8.75016C6.41699 8.63905 6.45519 8.54183 6.53158 8.4585C6.60796 8.37516 6.70866 8.3335 6.83366 8.3335H13.167C13.292 8.3335 13.3927 8.37516 13.4691 8.4585C13.5455 8.54183 13.5837 8.63905 13.5837 8.75016C13.5837 8.77794 13.542 8.87516 13.4587 9.04183L10.4378 12.0627C10.3684 12.1321 10.2989 12.1807 10.2295 12.2085C10.16 12.2363 10.0837 12.2502 10.0003 12.2502C9.91699 12.2502 9.8406 12.2363 9.77116 12.2085C9.70171 12.1807 9.63227 12.1321 9.56283 12.0627Z" fill="#F0ECF1"/>
</g>
</g>
</svg>
