<svg width="16" height="20" viewBox="0 0 16 20" fill="none" xmlns="http://www.w3.org/2000/svg">
<path id="Vector" d="M15.97 4.32152V17.6502C15.9477 18.1043 15.8006 18.5434 15.5448 18.9192C15.2889 19.2949 14.9343 19.5928 14.52 19.78C14.1119 19.9601 13.6634 20.0291 13.22 19.98C12.7744 19.9245 12.3525 19.7482 12 19.4701L8.59 16.9403C8.40988 16.8138 8.19512 16.7459 7.975 16.7459C7.75488 16.7459 7.54012 16.8138 7.36 16.9403L3.93 19.5C3.58182 19.7708 3.16747 19.9435 2.73 20H2.43C2.08472 19.9995 1.74363 19.9244 1.43 19.78C1.02933 19.5964 0.684338 19.31 0.43 18.9501C0.178424 18.5789 0.0300256 18.1476 0 17.7002V4.34252C0.0193547 3.75196 0.155103 3.17104 0.399462 2.63305C0.64382 2.09507 0.991982 1.61061 1.42398 1.20744C1.85598 0.804283 2.36332 0.490354 2.91692 0.283658C3.47051 0.0769624 4.05946 -0.0184344 4.65 0.0029381H11.38C12.5641 -0.0321964 13.7141 0.401984 14.5794 1.21089C15.4448 2.01979 15.9554 3.13786 16 4.32152H15.97Z" fill="#F1ECF0"/>
</svg>
