<svg width="28" height="28" viewBox="0 0 28 28" fill="none" xmlns="http://www.w3.org/2000/svg">
<g id="fluent:person-16-regular">
<path id="Vector" d="M21.125 14C21.8212 14 22.4889 14.2766 22.9812 14.7688C23.4734 15.2611 23.75 15.9288 23.75 16.625V17.5C23.75 20.9492 19.495 24.5 14 24.5C8.505 24.5 4.25 20.9492 4.25 17.5V16.625C4.25 15.9288 4.52656 15.2611 5.01884 14.7688C5.51113 14.2766 6.17881 14 6.875 14H21.125ZM21.125 15.75H6.875C6.64294 15.75 6.42038 15.8422 6.25628 16.0063C6.09219 16.1704 6 16.3929 6 16.625V17.5C6 20.0165 9.506 22.75 14 22.75C18.494 22.75 22 20.0165 22 17.5V16.625C22 16.3929 21.9078 16.1704 21.7437 16.0063C21.5796 15.8422 21.3571 15.75 21.125 15.75ZM14 2.625C15.2764 2.625 16.5004 3.13203 17.403 4.03455C18.3055 4.93707 18.8125 6.16115 18.8125 7.4375C18.8125 8.71385 18.3055 9.93793 17.403 10.8405C16.5004 11.743 15.2764 12.25 14 12.25C12.7236 12.25 11.4996 11.743 10.597 10.8405C9.69453 9.93793 9.1875 8.71385 9.1875 7.4375C9.1875 6.16115 9.69453 4.93707 10.597 4.03455C11.4996 3.13203 12.7236 2.625 14 2.625ZM14 4.375C13.1878 4.375 12.4088 4.69766 11.8345 5.27199C11.2602 5.84632 10.9375 6.62527 10.9375 7.4375C10.9375 8.24973 11.2602 9.02868 11.8345 9.60301C12.4088 10.1773 13.1878 10.5 14 10.5C14.8122 10.5 15.5912 10.1773 16.1655 9.60301C16.7398 9.02868 17.0625 8.24973 17.0625 7.4375C17.0625 6.62527 16.7398 5.84632 16.1655 5.27199C15.5912 4.69766 14.8122 4.375 14 4.375Z" fill="#F0ECF1" fill-opacity="0.5"/>
</g>
</svg>
