<svg width="24" height="24" viewBox="0 0 24 24" fill="none" xmlns="http://www.w3.org/2000/svg">
<g id="fluent:sparkle-28-filled">
<path id="Vector" d="M8.77808 15.8439C8.93942 15.9579 9.12408 16.0346 9.31868 16.0683C9.51329 16.1021 9.71296 16.0922 9.90325 16.0392C10.0935 15.9862 10.2697 15.8916 10.4189 15.7621C10.5681 15.6327 10.6867 15.4716 10.766 15.2907L11.3959 13.3756C11.5491 12.9148 11.8075 12.4961 12.1505 12.1526C12.4936 11.8091 12.9119 11.5503 13.3723 11.3966L15.2032 10.8016C15.4634 10.7111 15.6884 10.5406 15.8462 10.3147C15.968 10.1433 16.0473 9.94549 16.0777 9.73744C16.108 9.5294 16.0884 9.31712 16.0206 9.11813C15.9527 8.91914 15.8385 8.73914 15.6875 8.593C15.5364 8.44686 15.3527 8.33875 15.1516 8.27761L13.3396 7.68835C12.8789 7.53546 12.4602 7.27733 12.1166 6.9344C11.7729 6.59147 11.5139 6.17318 11.3599 5.71268L10.7652 3.88186C10.6737 3.62247 10.5039 3.39794 10.2792 3.2394C10.0532 3.08349 9.78518 3 9.51066 3C9.23613 3 8.96809 3.08349 8.74208 3.2394C8.51394 3.40081 8.34225 3.62983 8.25124 3.89414L7.64915 5.74787C7.49555 6.19641 7.24199 6.60413 6.90765 6.94017C6.57331 7.27622 6.16696 7.53178 5.71933 7.68753L3.88686 8.2817C3.6261 8.37392 3.40057 8.54515 3.24162 8.77157C3.08268 8.998 2.99823 9.26836 3.00003 9.54504C3.00183 9.82172 3.08979 10.091 3.25166 10.3153C3.41354 10.5396 3.64129 10.7079 3.90322 10.7967L5.71605 11.386C6.30379 11.5833 6.82047 11.9494 7.20166 12.4385C7.41927 12.7192 7.58697 13.0343 7.69741 13.3715L8.29296 15.1998C8.38459 15.4601 8.55475 15.6852 8.77972 15.8439M16.751 20.8199C16.9175 20.9377 17.1165 21.0006 17.3203 21C17.5228 21.0006 17.7206 20.9386 17.8864 20.8224C18.0572 20.7018 18.185 20.5297 18.2513 20.3313L18.5556 19.3959C18.62 19.2017 18.7287 19.0251 18.8731 18.8802C19.0175 18.7353 19.1936 18.6261 19.3876 18.5611L20.3415 18.2517C20.5338 18.1834 20.7004 18.0572 20.8183 17.8905C20.9361 17.7237 20.9996 17.5246 21 17.3204C21 17.1108 20.933 16.9067 20.8088 16.738C20.6845 16.5692 20.5096 16.4446 20.3096 16.3825L19.3737 16.0796C19.1795 16.0152 19.0029 15.9063 18.8581 15.7617C18.7132 15.6171 18.6041 15.4407 18.5393 15.2465L18.2284 14.2947C18.1613 14.1004 18.0351 13.9321 17.8674 13.8134C17.6997 13.6947 17.499 13.6316 17.2935 13.6331C17.0881 13.6345 16.8883 13.7004 16.7223 13.8214C16.5563 13.9425 16.4324 14.1126 16.3681 14.3078L16.0621 15.2457C15.9994 15.4373 15.8936 15.6121 15.7528 15.7564C15.6119 15.9007 15.4399 16.0107 15.2498 16.078L14.2959 16.3874C14.1031 16.4555 13.9362 16.5817 13.8179 16.7486C13.6997 16.9155 13.6361 17.115 13.6358 17.3195C13.636 17.5259 13.7011 17.7269 13.822 17.8941C13.9428 18.0612 14.1132 18.1861 14.309 18.2509L15.2449 18.5554C15.4399 18.6197 15.617 18.729 15.7619 18.8744C15.9069 19.0199 16.0156 19.1974 16.0793 19.3926L16.3894 20.3444C16.457 20.5367 16.5828 20.7032 16.7493 20.8208" fill="#F2F2F2"/>
</g>
</svg>
